<mxfile host="app.diagrams.net" modified="2023-07-25T18:18:26.055Z" agent="Mozilla/5.0 (Windows NT 10.0; Win64; x64) AppleWebKit/537.36 (KHTML, like Gecko) Chrome/114.0.0.0 Safari/537.36" etag="Vx7MzOAb2UWcXrMiw3yD" version="21.6.5" type="github">
  <diagram name="Page-1" id="hdmDzYM7WvVBYL8BVrtJ">
    <mxGraphModel dx="1434" dy="802" grid="1" gridSize="10" guides="1" tooltips="1" connect="1" arrows="1" fold="1" page="1" pageScale="1" pageWidth="850" pageHeight="1100" math="0" shadow="0">
      <root>
        <mxCell id="0" />
        <mxCell id="1" parent="0" />
        <mxCell id="ppo_4UwESWx6L-mW4Fb--4" style="edgeStyle=orthogonalEdgeStyle;rounded=0;orthogonalLoop=1;jettySize=auto;html=1;entryX=0;entryY=0.5;entryDx=0;entryDy=0;" edge="1" parent="1" source="ppo_4UwESWx6L-mW4Fb--1" target="ppo_4UwESWx6L-mW4Fb--3">
          <mxGeometry relative="1" as="geometry" />
        </mxCell>
        <mxCell id="ppo_4UwESWx6L-mW4Fb--1" value="GET&lt;br&gt;/access/impersonate/" style="strokeWidth=2;html=1;shape=mxgraph.flowchart.start_1;whiteSpace=wrap;" vertex="1" parent="1">
          <mxGeometry x="40" y="110" width="150" height="60" as="geometry" />
        </mxCell>
        <mxCell id="ppo_4UwESWx6L-mW4Fb--6" style="edgeStyle=orthogonalEdgeStyle;rounded=0;orthogonalLoop=1;jettySize=auto;html=1;" edge="1" parent="1" source="ppo_4UwESWx6L-mW4Fb--3" target="ppo_4UwESWx6L-mW4Fb--5">
          <mxGeometry relative="1" as="geometry" />
        </mxCell>
        <mxCell id="ppo_4UwESWx6L-mW4Fb--3" value="GET&lt;br&gt;/instances/:process_sid/start" style="rounded=0;whiteSpace=wrap;html=1;" vertex="1" parent="1">
          <mxGeometry x="320" y="110" width="160" height="60" as="geometry" />
        </mxCell>
        <mxCell id="ppo_4UwESWx6L-mW4Fb--8" style="edgeStyle=orthogonalEdgeStyle;rounded=0;orthogonalLoop=1;jettySize=auto;html=1;entryX=0.5;entryY=0;entryDx=0;entryDy=0;" edge="1" parent="1" source="ppo_4UwESWx6L-mW4Fb--5" target="ppo_4UwESWx6L-mW4Fb--7">
          <mxGeometry relative="1" as="geometry" />
        </mxCell>
        <mxCell id="ppo_4UwESWx6L-mW4Fb--5" value="GET&lt;br&gt;/instances/:instance_sid/tasks/&lt;br&gt;:task_sid/reciptasks/:status" style="rounded=0;whiteSpace=wrap;html=1;" vertex="1" parent="1">
          <mxGeometry x="600" y="110" width="180" height="60" as="geometry" />
        </mxCell>
        <mxCell id="ppo_4UwESWx6L-mW4Fb--12" style="edgeStyle=orthogonalEdgeStyle;rounded=0;orthogonalLoop=1;jettySize=auto;html=1;entryX=1;entryY=0.5;entryDx=0;entryDy=0;" edge="1" parent="1" source="ppo_4UwESWx6L-mW4Fb--7" target="ppo_4UwESWx6L-mW4Fb--11">
          <mxGeometry relative="1" as="geometry" />
        </mxCell>
        <mxCell id="ppo_4UwESWx6L-mW4Fb--7" value="POST&lt;br&gt;/tasktypes/data-container/&lt;br&gt;instances/tasks/reciptasks/:reciptask_sid" style="rounded=0;whiteSpace=wrap;html=1;" vertex="1" parent="1">
          <mxGeometry x="577.5" y="270" width="225" height="60" as="geometry" />
        </mxCell>
        <mxCell id="ppo_4UwESWx6L-mW4Fb--10" value="Start Process and Prefill&lt;br&gt;Logic Flow" style="text;strokeColor=none;fillColor=none;html=1;fontSize=24;fontStyle=1;verticalAlign=middle;align=center;" vertex="1" parent="1">
          <mxGeometry x="375" y="30" width="100" height="40" as="geometry" />
        </mxCell>
        <mxCell id="ppo_4UwESWx6L-mW4Fb--15" style="edgeStyle=orthogonalEdgeStyle;rounded=0;orthogonalLoop=1;jettySize=auto;html=1;entryX=1;entryY=0.5;entryDx=0;entryDy=0;" edge="1" parent="1" source="ppo_4UwESWx6L-mW4Fb--11" target="ppo_4UwESWx6L-mW4Fb--13">
          <mxGeometry relative="1" as="geometry" />
        </mxCell>
        <mxCell id="ppo_4UwESWx6L-mW4Fb--11" value="POST&lt;br&gt;/tasktypes/approval/:reciptask_sid" style="rounded=0;whiteSpace=wrap;html=1;" vertex="1" parent="1">
          <mxGeometry x="305" y="270" width="190" height="60" as="geometry" />
        </mxCell>
        <mxCell id="ppo_4UwESWx6L-mW4Fb--13" value="REROUTE&lt;br&gt;domain.net/#/section-dashboard/request/instance_sid" style="ellipse;whiteSpace=wrap;html=1;" vertex="1" parent="1">
          <mxGeometry x="12.5" y="260" width="205" height="80" as="geometry" />
        </mxCell>
      </root>
    </mxGraphModel>
  </diagram>
</mxfile>
